<?xml version="1.0" encoding="UTF-8" standalone="no"?>
<!DOCTYPE svg PUBLIC "-//W3C//DTD SVG 20010904//EN"
              "http://www.w3.org/TR/2001/REC-SVG-20010904/DTD/svg10.dtd">

<svg xmlns="http://www.w3.org/2000/svg"
     width="20.0in" height="10.4in"
     viewBox="0 0 200 104">
  <path id="Railing"
        fill="none" stroke="#ddd" stroke-width="3"
        d="M 160,16
           C 160,16 160,0 160,0
             160,0 95,0 95,0
             95,0 95,16 95,16" />
   <path id="Shared Walls"
        fill="none" stroke="#777" stroke-width="3"
        d="M 106,103
           C 106,103 147,103 147,103
             147,103 147,94 147,94
             147,94 175,94 175,94M 2,14.5
           C 2,14.5 2,71 2,71
             2,71 0,71 0,71
             0,71 0,103 0,103
             0,103 93.5,103 93.5,103" />
  <path id="Exterior Walls"
        fill="none" stroke="#777" stroke-width="3"
        d="M 199,43
           C 199,43 199,67 199,67
             199,67 175,67 175,67
             175,67 175,95.5 175,95.5M 95,29.5
           C 95,29.5 95,16 95,16
             95,16 78,16 78,16M 52,16
           C 52,16 33,16 33,16M .5,16
           C .5,16 7,16 7,16" />
  <path id="Supports"
        fill="#777" stroke="#777" stroke-width="1"
        d="M 174,67
           C 174,67 174,61 174,61
             174,61 183,61 183,61
             183,61 183,67 183,67
             183,67 174,67 174,67 Z
           M 123,38
           C 123,38 123,29 123,29
             123,29 130,29 130,29
             130,29 130,38 130,38
             130,38 123,38 123,38 Z
           M 50,27
           C 51,27 44,27 44,27
             44,27 44,36 44,36
             44,36 51,36 51,36
             51,36 51,27 51,27
             51,27 50,27 50,27 Z" />

  <path id="Interior Walls"
        fill="none" stroke="#777" stroke-width="1"
        d="M 147,92.5
           C 147,92.5 147,65 147,65
             147,65 154,65 154,65M 169,65
           C 169,65 174,65 174,65M 96.5,29
           C 96.5,29 89,29 89,29
             89,29 89,59 89,59M 70,54
           C 70,54 74,54 74,54
             74,54 74,59 74,59
             76,59 48,59 48,59
             48,59 48,54 48,54
             48,54 52,54 52,54
             52,54 48,54 48,54
             48,54 48,36 48,36M 48,27
           C 48,27 48,16 48,16M 2,71
           C 2,71 13,71 13,71M 24,71
           C 24,71 33,71 33,71
             33,71 33,101.5 33,101.5M 45,71
           C 45,71 61,71 61,71
             61,71 52,71 52,71
             52,71 52,101.5 52,101.5M 93,83
           C 93,83 93,101.5 93,101.5
             93,101.5 93,87 93,87
             93,87 87,87 87,87
             87,87 87,101.5 87,101.5
             87,101.5 87,71 87,71
             87,71 93,71 93,71
             93,71 93,74 93,74M 74,85
           C 74,85 74,71 74,71
             74,71 74,83 74,83
             74,83 87,83 87,83M 74,99
           C 74,99 74,101.5 74,101.5M 113,29
           C 113,29 123,29 123,29" />
  <path id="Windows"
        fill="none" stroke="#ddd" stroke-width="1"
        d="M 199,43
           C 199,43 199,16 199,16
             199,16 123,16 123,16M 113,29
           C 113,29 96.5,29 96.5,29M 78,16
           C 78,16 52,16 52,16M 33,16
           C 33,16 7,16 7,16" />
</svg>
