<?xml version="1.0" encoding="UTF-8" standalone="no"?>
<!DOCTYPE svg PUBLIC "-//W3C//DTD SVG 20010904//EN"
              "http://www.w3.org/TR/2001/REC-SVG-20010904/DTD/svg10.dtd">

<svg xmlns="http://www.w3.org/2000/svg"
     width="20.0in" height="10.4in"
     viewBox="-1 -1 201 105">

  <path id="Furniture" fill="#afafaf3f"
        d="M 30,95
           C 30,95 30,100 30,100
             30,100 32,100 32,100
             32,100 32,95 32,95
             32,95 30,95 30,95 Z
           M 26,95
           C 21,95 21,99 26,99
             28,99 29,98 29,98
             29,98 29,96 29,96
             29,96 28,95 26,95 Z
           M 53,84
           C 53,84 53,89 53,89
             53,89 55,89 55,89
             55,89 55,84 55,84
             55,84 53,84 53,84 Z
           M 59,84
           C 57,84 56,85 56,85
             56,85 56,88 56,88
             56,88 56,89 59,89
             63,89 64,84 59,84 Z
           M 56,16
           C 56,16 56,39 56,39
             56,39 73,39 73,39
             73,39 73,17 73,17
             73,17 56,16 56,16 Z
           M 26,37
           C 26,37 47,37 47,37
             47,37 47,54 47,54
             47,54 26,54 26,54
             26,54 26,37 26,37 Z
           M 99,40
           C 99,40 99,48 99,48
             98,48 115,48 115,48
             115,48 115,40 115,40
             115,40 99,40 99,40 Z
           M 148,46
           C 148,46 148,55 148,55
             148,55 173,55 173,55
             173,55 173,46 173,46
             173,46 148,46 148,46 Z
           M 142,30
           C 150,30 148,39 141,39
             133,38 136,30 142,30 Z
           M 153,17
           C 153,17 153,24 153,24
             153,24 171,24 171,24
             171,24 171,17 171,17
             171,17 153,17 153,17 Z
           M 185,32
           C 185,32 180,40 180,40
             180,40 189,44 189,44
             189,44 194,35 194,35
             194,35 185,32 185,32 Z
           M 176,38
           C 176,38 181,30 181,30
             181,30 176,28 176,28
             176,28 171,35 171,35
             171,35 176,38 176,38 Z
           M 184,61
           C 184,61 186,66 186,66
             186,66 197,61 197,61
             198,61 194,55 194,55
             194,55 192,56 192,56
             192,56 191,53 191,53
             191,53 184,57 184,57
             184,57 186,60 186,60
             186,60 184,61 184,61 Z
           M 3,58
           C 3,58 3,71 3,71
             3,71 10,71 10,71
             10,71 10,58 10,58
             10,58 3,58 3,58 Z
           M 3,47
           C 3,47 3,57 3,57
             3,57 7,57 7,57
             7,57 7,47 7,47
             7,47 3,47 3,47 Z
           M 8,17
           C 8,18 8,26 8,26
             8,26 26,26 26,26
             26,26 26,17 26,17
             26,17 9,17 8,17 Z
           M 43,17
           C 43,17 43,27 43,27
             43,27 47,27 47,27
             47,27 47,17 47,17
             47,17 43,17 43,17 Z
           M 1,72
           C 0,72 1,92 1,92
             1,92 12,92 12,92
             12,92 12,72 12,72
             12,72 1,72 1,72 Z
           M 49,40
           C 49,41 49,51 49,51
             49,51 54,51 54,51
             54,51 54,40 54,40
             54,40 49,40 49,40 Z
           M 138,68
           C 138,71 143,71 143,68
             143,65 138,65 138,68 Z
           M 134,68
           C 134,71 129,71 129,68
             129,65 134,65 134,68 Z
           M 125,68
           C 125,71 120,71 120,68
             120,65 125,65 125,68 Z
           M 116,68
           C 116,71 111,71 111,68
             111,65 116,65 116,68 Z
           M 105,41
           C 105,41 109,41 109,41
             109,41 109,37 109,37
             109,37 105,37 105,37
             105,37 105,41 105,41 Z
           M 114,42
           C 114,42 118,42 118,42
             118,42 118,46 118,46
             118,46 114,46 114,46
             114,46 114,42 114,42 Z
           M 109,47
           C 109,47 105,47 105,47
             105,47 105,51 105,51
             105,51 109,51 109,51
             109,51 109,47 109,47 Z
           M 96,42
           C 96,42 96,46 96,46
             96,46 100,46 100,46
             100,46 100,42 100,42
             100,42 96,42 96,42 Z
           M 99,30
           C 99,30 99,34 99,34
             99,34 110,34 110,34
             110,34 110,30 110,30
             110,30 99,30 99,30 Z
           M 90,30
           C 90,30 90,34 90,34
             90,34 94,34 94,34
             94,34 94,30 94,30
             94,30 90,30 90,30 Z
           M 116,30
           C 116,30 116,33 116,33
             116,33 123,33 123,33
             123,33 123,30 123,30
             123,30 116,30 116,30 Z
           M 149,69
           C 149,69 152,76 152,76
             152,76 157,74 157,74
             157,74 154,67 154,67
             154,67 149,69 149,69 Z
           M 153,78
           C 153,78 155,81 155,81
             155,81 158,80 158,80
             158,80 156,77 156,77
             156,77 153,78 153,78 Z
           M 169,67
           C 169,67 164,74 164,74
             164,74 170,77 170,77
             170,77 174,69 174,69
             174,69 169,67 169,67 Z
           M 165,76
           C 165,76 163,78 163,78
             163,78 167,81 167,81
             167,81 168,78 168,78
             168,78 165,76 165,76 Z" />

  <path id="Tables" fill="#afafaf3f"
        d="M 141,48
           C 141,48 141,55 141,55
             141,55 147,55 147,55
             147,54 147,48 147,48
             147,48 141,48 141,48 Z
           M 177,47
           C 173,47 173,53 177,53
             181,53 181,47 177,47 Z
           M 187,27
           C 187,27 185,31 185,31
             185,31 191,33 191,33
             191,33 193,29 193,29
             193,29 187,27 187,27 Z
           M 152,36
           C 152,36 152,41 152,41
             152,41 168,41 168,41
             168,41 168,36 168,36
             168,36 152,36 152,36 Z
           M 49,17
           C 49,17 49,22 49,22
             49,22 55,22 55,22
             55,22 55,17 55,17
             55,17 49,17 49,17 Z
           M 42,55
           C 42,55 42,59 42,59
             42,59 47,59 47,59
             47,59 47,55 47,55
             47,55 42,55 42,55 Z
           M 39,29
           C 39,29 39,36 39,36
             39,36 44,36 44,36
             44,36 44,29 44,29
             44,29 39,29 39,29 Z
           M 172,75
           C 172,76 172,82 172,82
             172,82 175,82 175,82
             175,82 175,75 175,75
             175,75 172,75 172,75 Z
           M 148,75
           C 148,75 148,82 148,82
             148,82 151,82 151,82
             151,82 151,75 151,75
             151,75 148,75 148,75 Z
           M 3,21
           C 3,21 3,28 3,27
             3,27 7,27 7,27
             7,26 7,21 7,21
             6,21 3,21 3,21 Z" />
  <path id="Counters" fill="#7f7f7f7f"
        d="M 146.00,68.00
           C 146.00,68.00 108.00,68.00 108.00,68.00
             108.00,68.00 108.22,78.22 108.22,78.22
             108.22,78.22 136.00,78.00 136.00,78.00
             136.00,78.00 136.00,92.00 136.00,92.00
             136.00,92.00 107.00,92.00 107.00,92.00
             107.00,92.00 107.25,102.50 107.25,102.50
             107.25,102.50 146.00,102.00 146.00,102.00
             146.00,102.00 146.00,68.00 146.00,68.00 Z
           M 12.00,92.00
           C 12.00,92.00 12.00,103.00 12.00,103.00
             12.00,103.00 0.00,103.00 0.00,103.00
             0.00,103.00 1.00,92.00 1.00,92.00
             1.00,92.00 12.00,92.00 12.00,92.00 Z
           M 53.07,93.16
           C 53.07,93.16 62.00,93.00 62.00,93.00
             62.00,93.00 62.00,103.00 62.00,103.00
             62.00,103.00 53.00,103.00 53.00,103.00
             53.00,103.00 53.07,93.16 53.07,93.16 Z
           M 25.00,72.00
           C 25.00,72.00 25.11,91.20 25.11,91.20
             25.11,91.20 32.00,91.00 33.00,91.00
             33.00,91.00 33.00,72.00 33.00,72.00
             33.00,72.00 25.00,72.00 25.00,72.00 Z
           M 52.00,72.00
           C 52.00,72.00 52.00,82.00 52.00,81.00
             53.00,81.00 60.00,81.00 60.00,81.00
             60.00,81.00 60.00,72.00 60.00,72.00
             60.00,72.00 52.00,72.00 52.00,72.00 Z
           M 76.00,84.00
           C 76.00,84.00 76.22,103.13 76.22,103.13
             76.22,103.13 87.00,103.00 87.00,103.00
             87.00,103.00 87.00,84.00 87.00,84.00
             87.00,84.00 76.00,84.00 76.00,84.00 Z
           M 46.00,72.00
           C 46.00,72.00 46.00,96.00 46.00,96.00
             46.00,96.00 34.00,96.00 34.00,96.00
             34.00,97.00 34.00,103.00 34.00,103.00
             34.00,103.00 52.00,103.00 52.00,103.00
             52.00,103.00 52.00,72.00 52.00,72.00
             52.00,72.00 46.00,72.00 46.00,72.00 Z
           M 148.00,85.00
           C 148.00,85.00 148.00,93.00 148.00,93.00
             148.00,93.00 175.00,93.00 175.00,93.00
             175.00,93.00 175.00,85.00 175.00,85.00
             175.00,85.00 148.00,85.00 148.00,85.00 Z
           M 124.00,39.00
           C 124.00,39.00 124.00,51.00 124.00,51.00
             124.00,51.00 130.00,51.00 130.00,51.00
             130.00,51.00 130.00,39.00 130.00,39.00
             130.00,39.00 125.00,39.00 124.00,39.00 Z
           M 81.00,17.00
           C 81.00,18.00 81.00,45.00 81.00,45.00
             81.00,45.00 88.00,45.00 88.00,45.00
             88.00,45.00 88.00,17.00 88.00,17.00
             88.00,17.00 81.00,17.00 81.00,17.00 Z
           M 141.00,15.00" />




  <path id="Railing"
        fill="none" stroke="#7f7f7f7f" stroke-width="1"
        d="M 160,16
           C 160,16 160,0 160,0
             160,0 95,0 95,0
             95,0 95,16 95,16" />
   <path id="Shared Walls"
        fill="none" stroke="#7f7f7f3f" stroke-width="3"
        d="M 106,103
           C 106,103 147,103 147,103
             147,103 147,94 147,94
             147,94 175,94 175,94M 2,14.5
           C 2,14.5 2,71 2,71
             2,71 0,71 0,71
             0,71 0,103 0,103
             0,103 93.5,103 93.5,103" />
  <path id="Exterior Walls"
        fill="none" stroke="#3f3f3f3f" stroke-width="3"
        d="M 199,43
           C 199,43 199,67 199,67
             199,67 175,67 175,67
             175,67 175,95.5 175,95.5M 95,29.5
           C 95,29.5 95,16 95,16
             95,16 78,16 78,16M 52,16
           C 52,16 33,16 33,16M .5,16
           C .5,16 7,16 7,16" />
  <path id="Supports"
        fill="#3f3f3f3f"
        d="M 174,67
           C 174,67 174,61 174,61
             174,61 183,61 183,61
             183,61 183,67 183,67
             183,67 174,67 174,67 Z
           M 123,38
           C 123,38 123,29 123,29
             123,29 130,29 130,29
             130,29 130,38 130,38
             130,38 123,38 123,38 Z
           M 50,27
           C 51,27 44,27 44,27
             44,27 44,36 44,36
             44,36 51,36 51,36
             51,36 51,27 51,27
             51,27 50,27 50,27 Z" />

  <path id="Interior Walls"
        fill="none" stroke="#afafafaf" stroke-width="1"
        d="M 147,92.5
           C 147,92.5 147,65 147,65
             147,65 154,65 154,65M 169,65
           C 169,65 174,65 174,65M 96.5,29
           C 96.5,29 89,29 89,29
             89,29 89,59 89,59M 70,54
           C 70,54 74,54 74,54
             74,54 74,59 74,59
             76,59 48,59 48,59
             48,59 48,54 48,54
             48,54 52,54 52,54
             52,54 48,54 48,54
             48,54 48,36 48,36M 48,27
           C 48,27 48,16 48,16M 2,71
           C 2,71 13,71 13,71M 24,71
           C 24,71 33,71 33,71
             33,71 33,101.5 33,101.5M 45,71
           C 45,71 61,71 61,71
             61,71 52,71 52,71
             52,71 52,101.5 52,101.5M 93,83
           C 93,83 93,101.5 93,101.5
             93,101.5 93,87 93,87
             93,87 87,87 87,87
             87,87 87,101.5 87,101.5
             87,101.5 87,71 87,71
             87,71 93,71 93,71
             93,71 93,74 93,74M 74,85
           C 74,85 74,71 74,71
             74,71 74,83 74,83
             74,83 87,83 87,83M 74,99
           C 74,99 74,101.5 74,101.5M 113,29
           C 113,29 123,29 123,29" />
  <path id="Windows"
        fill="none" stroke="#afafaf7f" stroke-width="1"
        d="M 199,43
           C 199,43 199,16 199,16
             199,16 123,16 123,16M 113,29
           C 113,29 96.5,29 96.5,29M 78,16
           C 78,16 52,16 52,16M 33,16
           C 33,16 7,16 7,16" />
</svg>
